<?xml version="1.0" encoding="UTF-8" standalone="no"?>
<!-- Created with Inkscape (http://www.inkscape.org/) -->

<svg
   width="150mm"
   height="90mm"
   viewBox="0 0 150 90"
   version="1.1"
   id="svg5"
   inkscape:version="1.1.2 (0a00cf5339, 2022-02-04)"
   sodipodi:docname="App-BDE.svg"
   xmlns:inkscape="http://www.inkscape.org/namespaces/inkscape"
   xmlns:sodipodi="http://sodipodi.sourceforge.net/DTD/sodipodi-0.dtd"
   xmlns:xlink="http://www.w3.org/1999/xlink"
   xmlns="http://www.w3.org/2000/svg"
   xmlns:svg="http://www.w3.org/2000/svg">
  <sodipodi:namedview
     id="namedview7"
     pagecolor="#ffffff"
     bordercolor="#666666"
     borderopacity="1.0"
     inkscape:pageshadow="2"
     inkscape:pageopacity="0.0"
     inkscape:pagecheckerboard="0"
     inkscape:document-units="mm"
     showgrid="false"
     inkscape:zoom="0.5301135"
     inkscape:cx="300.87896"
     inkscape:cy="422.55102"
     inkscape:window-width="1366"
     inkscape:window-height="700"
     inkscape:window-x="0"
     inkscape:window-y="0"
     inkscape:window-maximized="1"
     inkscape:current-layer="layer1"
     width="110mm" />
  <defs
     id="defs2">
    <linearGradient
       inkscape:collect="always"
       id="linearGradient27491">
      <stop
         style="stop-color:#004280;stop-opacity:1"
         offset="0"
         id="stop27487" />
      <stop
         style="stop-color:#00ffff;stop-opacity:1"
         offset="1"
         id="stop27489" />
    </linearGradient>
    <linearGradient
       inkscape:collect="always"
       xlink:href="#linearGradient27491"
       id="linearGradient27493"
       x1="139.75751"
       y1="86.01326"
       x2="138.35551"
       y2="169.22935"
       gradientUnits="userSpaceOnUse"
       gradientTransform="matrix(0.87654327,0,0,0.87654327,-16.967188,-72.681226)" />
  </defs>
  <g
     inkscape:label="Layer 1"
     inkscape:groupmode="layer"
     id="layer1">
    <circle
       style="fill:url(#linearGradient27493);fill-opacity:1;stroke:#000001;stroke-width:0.87653;stroke-linecap:round;stroke-linejoin:round;stroke-miterlimit:4.4;stroke-opacity:0;paint-order:markers fill stroke"
       id="path27375"
       cx="104.16484"
       cy="40.762524"
       r="35.061737" />
    <rect
       style="fill:#000000;fill-opacity:1;stroke:none;stroke-width:0.383222;stroke-linecap:round;stroke-linejoin:round;stroke-miterlimit:4;stroke-dasharray:none;stroke-opacity:1;paint-order:markers fill stroke"
       id="rect31625"
       width="24.987181"
       height="0.88699073"
       x="25.251019"
       y="83.412117"
       ry="0.44349536" />
    <rect
       style="fill:#000000;fill-opacity:1;stroke:none;stroke-width:0.40623;stroke-linecap:round;stroke-linejoin:round;stroke-miterlimit:4;stroke-dasharray:none;stroke-opacity:1;paint-order:markers fill stroke"
       id="rect31625-3"
       width="26.438828"
       height="0.9419716"
       x="81.021095"
       y="83.521492"
       ry="0.4709858" />
    <text
       xml:space="preserve"
       style="font-size:50.8px;line-height:1.25;font-family:'a Arigatou Gozaimasu';-inkscape-font-specification:'a Arigatou Gozaimasu';stroke-width:0.264583"
       x="91.683556"
       y="172.52257"
       id="text35843"><tspan
         sodipodi:role="line"
         id="tspan35841"
         style="stroke-width:0.264583"
         x="91.683556"
         y="172.52257" /></text>
    <text
       xml:space="preserve"
       style="font-size:7.7611px;line-height:1.25;font-family:Purisa;-inkscape-font-specification:Purisa;stroke-width:0.264583"
       x="52.582031"
       y="85.811455"
       id="text58049"><tspan
         sodipodi:role="line"
         id="tspan58047"
         style="stroke-width:0.264583"
         x="52.582031"
         y="85.811455">L'app</tspan><tspan
         sodipodi:role="line"
         style="stroke-width:0.264583"
         x="52.582031"
         y="95.512833"
         id="tspan58051" /></text>
  </g>
  <g
     inkscape:groupmode="layer"
     id="layer2"
     inkscape:label="Layer 2">
    <g
       aria-label="BDE"
       id="text3993"
       style="font-size:50.8px;line-height:1.25;font-family:Homestead;-inkscape-font-specification:Homestead;letter-spacing:0px;word-spacing:0px;fill:#000000;fill-opacity:1;stroke:#fbfffa;stroke-width:1.5;stroke-miterlimit:4;stroke-dasharray:none;stroke-opacity:1"
       transform="translate(-37.633194,-92.35726)">
      <path
         d="m 86.577229,148.99292 q 1.473199,1.4732 2.285999,3.4544 0.8128,1.9304 0.8128,4.1656 0,2.286 -0.8636,4.318 -0.8636,1.9812 -2.387599,3.5052 -1.4732,1.4732 -3.5052,2.3368 -1.9812,0.8636 -4.2672,0.8636 h -17.78 v -7.112 h 3.556 v -21.336 h -3.556 v -7.112 h 17.78 q 2.1336,0 4.0132,0.8128 1.8796,0.8128 3.2512,2.2352 1.422399,1.3716 2.235199,3.2512 0.8128,1.8796 0.8128,4.0132 0,1.8796 -0.6604,3.556 -0.6096,1.6764 -1.727199,3.048 z m -15.0368,-9.8044 v 6.4008 h 7.112 q 1.3208,0 2.2352,-0.9144 0.9652,-0.9652 0.9652,-2.286 0,-1.3208 -0.9652,-2.2352 -0.9144,-0.9652 -2.2352,-0.9652 z m 7.112,21.336 q 1.6256,0 2.7432,-1.1176 1.1684,-1.1684 1.1684,-2.794 0,-1.6256 -1.1684,-2.7432 -1.1176,-1.1684 -2.7432,-1.1684 h -7.112 v 7.8232 z"
         id="path28976"
         style="fill:#000000;fill-opacity:1;stroke:#fbfffa;stroke-width:1.5;stroke-miterlimit:4;stroke-dasharray:none;stroke-opacity:1" />
      <path
         d="m 106.69401,132.07652 q 2.9464,0 5.5372,1.1176 2.5908,1.1176 4.5212,3.048 1.9304,1.9304 3.048,4.5212 1.1176,2.5908 1.1176,5.5372 v 7.112 q 0,2.9464 -1.1176,5.5372 -1.1176,2.5908 -3.048,4.5212 -1.9304,1.9304 -4.5212,3.048 -2.5908,1.1176 -5.5372,1.1176 H 92.470015 v -7.112 h 3.556 v -21.336 h -3.556 v -7.112 z m 0,28.448 q 1.4732,0 2.7432,-0.5588 1.3208,-0.5588 2.286,-1.524 0.9652,-0.9652 1.524,-2.2352 0.5588,-1.3208 0.5588,-2.794 v -7.112 q 0,-1.4732 -0.5588,-2.7432 -0.5588,-1.3208 -1.524,-2.286 -0.9652,-0.9652 -2.286,-1.524 -1.27,-0.5588 -2.7432,-0.5588 h -3.556 v 21.336 z"
         id="path28973"
         style="fill:#000000;fill-opacity:1;stroke:#fbfffa;stroke-width:1.5;stroke-miterlimit:4;stroke-dasharray:none;stroke-opacity:1" />
      <path
         d="m 148.65478,132.07652 v 10.668 h -7.112 v -3.556 h -7.112 v 7.112 h 7.112 v 7.112 h -7.112 v 7.112 h 7.112 v -3.556 h 7.112 v 10.668 h -24.892 v -7.112 h 3.556 v -21.336 h -3.556 v -7.112 z"
         id="path28970"
         style="fill:#000000;fill-opacity:1;stroke:#fbfffa;stroke-width:1.5;stroke-miterlimit:4;stroke-dasharray:none;stroke-opacity:1" />
    </g>
  </g>
</svg>
